<svg xmlns="http://www.w3.org/2000/svg" xmlns:xlink="http://www.w3.org/1999/xlink" width="48" height="48" x="0" y="0" version="1.1"><defs><linearGradient id="color-1" x1="11.69" x2="57.524" y1="16.121" y2="53.092" gradientUnits="userSpaceOnUse"><stop offset="0" stop-color="#000" stop-opacity=".2"/><stop offset="1" stop-color="#000" stop-opacity="0"/></linearGradient><filter id="dropshadow"><feColorMatrix type="matrix" values="0 0 0 0 .05 0 0 0 0 .15 0 0 0 0 .1 0 0 0 .8 0"/><feOffset dx="0" dy="1"/><feGaussianBlur stdDeviation="1"/><feComposite in="SourceGraphic"/></filter></defs><g fill="none" stroke="none" stroke-dashoffset="0" stroke-linecap="butt" stroke-linejoin="miter" stroke-miterlimit="none" stroke-width="none" font-family="none" font-size="none" font-weight="none" mix-blend-mode="normal" text-anchor="start"><path fill="#ffc107" stroke-miterlimit="10" stroke-width="1" d="M3,24c0,-11.59798 9.40202,-21 21,-21c11.59798,0 21,9.40202 21,21c0,11.59798 -9.40202,21 -21,21c-11.59798,0 -21,-9.40202 -21,-21z" filter="url(#dropshadow)" font-family="sans-serif" font-size="12" font-weight="normal"/><path fill="url(#color-1)" stroke-miterlimit="10" stroke-width="1" d="M28.85989,44.43482l-14.86309,-14.86309c0.00252,0.00252 0.00505,0.00505 0.00758,0.00757l-0.00757,-0.00757c-1.48601,-1.48935 -2.30715,-3.46737 -2.30715,-5.57172l-0.00001,-0.00001c0,-2.10437 0.81781,-4.0824 2.30715,-5.57174c1.48933,-1.48601 3.46738,-2.30715 5.57173,-2.30715c0,0 0.00001,0.00001 0.00001,0.00001c1.6057,0 3.13493,0.47538 4.43145,1.35968l-0.00001,-0.00001c1.29652,-0.88428 2.82908,-1.35968 4.43146,-1.35968c2.10437,0 4.0824,0.81781 5.57174,2.30715l10.43164,10.43164c-1.82316,7.69486 -7.88007,13.75177 -15.57493,15.57492z" font-family="sans-serif" font-size="12" font-weight="normal"/><path fill="#fff" stroke="none" stroke-miterlimit="4" stroke-width="0" d="M34.00319,18.42827c1.48934,1.48934 2.30715,3.46737 2.30715,5.57173c0,2.10436 -0.81781,4.08572 -2.30715,5.57173c-1.48934,1.48602 -3.46737,2.30715 -5.57173,2.30715c-1.6057,0 -3.13493,-0.47539 -4.43146,-1.35969c-1.29652,0.8843 -2.82908,1.35969 -4.43146,1.35969c-2.10436,0 -4.08239,-0.81781 -5.57173,-2.30715c-1.48602,-1.48934 -2.30715,-3.46737 -2.30715,-5.57173c0,-2.10436 0.81781,-4.08239 2.30715,-5.57173c1.48934,-1.48602 3.46737,-2.30715 5.57173,-2.30715c1.6057,0 3.13493,0.47539 4.43146,1.35969c1.29652,-0.8843 2.82908,-1.35969 4.43146,-1.35969c2.10436,0 4.08239,0.81781 5.57173,2.30715z M14.08657,24c0,3.02522 2.4634,5.4853 5.4853,5.4853c0.95078,0 1.84173,-0.24268 2.62297,-0.66821c-1.06382,-1.37299 -1.64226,-3.0485 -1.64226,-4.81709c0,-1.76859 0.57845,-3.4441 1.64226,-4.81709c-0.77791,-0.42553 -1.67218,-0.66821 -2.62297,-0.66821c-3.02522,0 -5.4853,2.46007 -5.4853,5.4853z M33.91675,24c0,-3.02522 -2.46007,-5.4853 -5.4853,-5.4853c-0.95078,0 -1.84173,0.24268 -2.62297,0.66821c1.06382,1.37299 1.64226,3.05182 1.64226,4.81709c0,1.76859 -0.57845,3.4441 -1.64226,4.81709c0.77791,0.42553 1.67218,0.66821 2.62297,0.66821c3.02522,0 5.4853,-2.46007 5.4853,-5.4853z" font-family="&quot;Open Sans&quot;, sans-serif" font-size="14" font-weight="400"/></g></svg>